<?xml version="1.0" encoding="UTF-8"?>
<svg id="Layer_1" data-name="Layer 1" xmlns="http://www.w3.org/2000/svg" viewBox="0 0 1701.02 344.26">
  <path d="M326.84,0H17.42C7.8,0,0,7.8,0,17.42v309.42c0,9.62,7.8,17.42,17.42,17.42h309.42c9.62,0,17.42-7.8,17.42-17.42V17.42c0-9.62-7.8-17.42-17.42-17.42ZM202.31,59.23l20.07,14.45-9.53,82.75,42.82-58.44,18.2,13.13-44.86,61.81-36.31-26.46,9.6-87.24ZM91.88,95.87l75.69,34.68-42.29-58.93,18.21-13.13,44.87,61.67-36.35,26.51-79.88-36.08,19.77-14.72ZM72.63,227.06l56.72-61.62-69.2,22.13-7.01-21.29,72.57-23.53,13.86,42.72-59.02,64.79-7.92-23.2ZM191.5,285.76l-41.01-73.18-.25,72.91-22.71.1v-76.33s45.12-.1,45.12-.1l43.34,76.16-24.5.43ZM283.79,190.87l-81.46,16.43,68.43,22.63-6.7,21.49-72.53-23.52,13.86-42.78,85.71-17.72-7.32,23.47Z"/>
  <g>
    <path d="M495.5,337.54v-195.78h-66.54v-41.94h66.54v-52.08c0-14.47,4.34-26.01,13.01-34.73C517.18,4.34,528.77,0,543.24,0h61.23v41.94h-45.3c-9.3,0-13.98,4.82-13.98,14.47v43.4h68.49v41.94h-68.49v195.78h-49.69Z"/>
    <path d="M719.73,344.26c-17.05,0-32.25-2.87-45.55-8.67-13.35-5.8-23.97-14.32-31.81-25.57-7.89-11.25-11.79-24.89-11.79-40.97s3.95-29.96,11.79-40.72c7.89-10.77,18.66-18.9,32.3-24.36,13.64-5.46,29.18-8.18,46.52-8.18h72.34v-15.44c0-13.83-4.19-24.89-12.52-33.27-8.38-8.38-21.24-12.52-38.58-12.52s-30.06,4.04-39.07,12.03c-9.01,8.04-14.96,18.51-17.83,31.32l-46.28-14.96c3.85-12.86,10.04-24.5,18.56-34.98,8.52-10.42,19.83-18.9,34-25.33,14.13-6.43,31.18-9.65,51.1-9.65,30.84,0,55.14,7.89,72.83,23.63,17.68,15.73,26.5,38.09,26.5,67.03v97.87c0,9.65,4.48,14.47,13.49,14.47h20.27v41.46h-37.12c-11.25,0-20.41-2.87-27.47-8.67-7.06-5.8-10.62-13.64-10.62-23.63v-1.46h-7.21c-2.58,4.82-6.43,10.47-11.59,16.86-5.16,6.43-12.71,11.98-22.65,16.61-9.99,4.68-23.14,7.01-39.56,7.01l-.05.1ZM726.99,303.29c19.92,0,36-5.7,48.23-17.1,12.23-11.4,18.32-27.08,18.32-47.01v-4.82h-69.42c-13.2,0-23.77,2.83-31.81,8.43-8.04,5.65-12.03,13.93-12.03,24.84s4.19,19.63,12.52,26.01c8.38,6.43,19.78,9.65,34.25,9.65h-.05Z"/>
    <path d="M1043.29,344.26c-23.14,0-40.92-4.19-53.29-12.52-12.37-8.38-21.63-17.68-27.72-27.96h-7.7v33.76h-48.71V0h49.69v132.11h7.7c3.85-6.43,9.01-12.62,15.44-18.56,6.43-5.94,14.96-10.86,25.57-14.71,10.62-3.85,23.63-5.8,39.07-5.8,19.92,0,38.24,4.82,54.95,14.47,16.71,9.65,30.06,23.63,40.04,41.94,9.94,18.32,14.96,40.19,14.96,65.57v7.21c0,25.72-5.07,47.64-15.2,65.81-10.13,18.17-23.48,32.05-40.04,41.7-16.56,9.65-34.78,14.47-54.71,14.47l-.05.05ZM1028.82,300.86c21.53,0,39.31-6.92,53.29-20.75,13.98-13.83,21-33.56,21-59.28v-4.34c0-25.38-6.92-45.01-20.75-58.85-13.83-13.83-31.66-20.75-53.54-20.75s-38.82,6.92-52.81,20.75c-13.98,13.83-21,33.42-21,58.85v4.34c0,25.72,7.01,45.5,21,59.28,13.98,13.83,31.57,20.75,52.81,20.75Z"/>
    <path d="M1195.18,337.54V99.81h48.71v27.96h7.7c3.85-9.94,10.04-17.29,18.56-21.92,8.52-4.68,19.05-7.01,31.57-7.01h28.45v44.87h-30.4c-16.08,0-29.28,4.43-39.56,13.25-10.28,8.87-15.44,22.41-15.44,40.72v139.86h-49.69.1Z"/>
    <path d="M1396.22,67.52c-9.65,0-17.78-3.12-24.36-9.4-6.58-6.28-9.89-14.37-9.89-24.36s3.31-18.07,9.89-24.36S1386.57,0,1396.22,0s18.17,3.12,24.6,9.4c6.43,6.28,9.65,14.37,9.65,24.36s-3.22,18.07-9.65,24.36c-6.43,6.28-14.61,9.4-24.6,9.4ZM1371.18,337.54V99.81h49.69v237.72h-49.69Z"/>
    <path d="M1583.33,344.26c-22.85,0-43.5-4.82-61.96-14.47-18.51-9.65-33.13-23.63-43.89-41.94-10.77-18.32-16.17-40.34-16.17-66.06v-6.28c0-25.72,5.36-47.64,16.17-65.81,10.77-18.17,25.38-32.15,43.89-41.94,18.46-9.79,39.12-14.71,61.96-14.71s42.28,4.19,58.36,12.52c16.08,8.38,28.98,19.44,38.82,33.27,9.79,13.83,16.17,29.08,19.05,45.79l-48.23,10.13c-1.61-10.62-4.97-20.26-10.13-28.94-5.16-8.67-12.37-15.59-21.68-20.75-9.3-5.11-21.04-7.7-35.22-7.7s-26.26,3.12-37.36,9.4c-11.11,6.28-19.88,15.3-26.26,26.99-6.43,11.74-9.65,25.96-9.65,42.67v4.34c0,16.71,3.22,31.03,9.65,42.92,6.43,11.89,15.2,20.9,26.26,26.99,11.11,6.09,23.53,9.16,37.36,9.16,20.9,0,36.83-5.36,47.74-16.17,10.91-10.77,17.83-24.5,20.75-41.21l48.23,11.11c-3.85,16.42-10.67,31.52-20.51,45.3-9.79,13.83-22.75,24.84-38.82,33.03-16.08,8.18-35.51,12.28-58.36,12.28v.1Z"/>
  </g>
</svg>